<mxfile host="Electron" modified="2024-05-23T11:52:35.750Z" agent="Mozilla/5.0 (Windows NT 10.0; Win64; x64) AppleWebKit/537.36 (KHTML, like Gecko) draw.io/21.6.1 Chrome/112.0.5615.204 Electron/24.6.1 Safari/537.36" etag="Hmusg0KgqEp0g-PU0kOC" version="21.6.1" type="device">
  <diagram name="PÃ¡gina-1" id="T9xI53VbkTLPBKB3R8_S">
    <mxGraphModel dx="915" dy="1360" grid="1" gridSize="10" guides="1" tooltips="1" connect="1" arrows="1" fold="1" page="1" pageScale="1" pageWidth="1169" pageHeight="827" math="0" shadow="0">
      <root>
        <mxCell id="0" />
        <mxCell id="1" parent="0" />
        <mxCell id="KqfgTV9DE77OCgo0P1k1-1" value="" style="shape=umlLifeline;perimeter=lifelinePerimeter;whiteSpace=wrap;html=1;container=1;dropTarget=0;collapsible=0;recursiveResize=0;outlineConnect=0;portConstraint=eastwest;newEdgeStyle={&quot;edgeStyle&quot;:&quot;elbowEdgeStyle&quot;,&quot;elbow&quot;:&quot;vertical&quot;,&quot;curved&quot;:0,&quot;rounded&quot;:0};participant=umlActor;" vertex="1" parent="1">
          <mxGeometry x="550" y="180" width="20" height="1130" as="geometry" />
        </mxCell>
        <mxCell id="KqfgTV9DE77OCgo0P1k1-8" value="" style="html=1;points=[];perimeter=orthogonalPerimeter;outlineConnect=0;targetShapes=umlLifeline;portConstraint=eastwest;newEdgeStyle={&quot;edgeStyle&quot;:&quot;elbowEdgeStyle&quot;,&quot;elbow&quot;:&quot;vertical&quot;,&quot;curved&quot;:0,&quot;rounded&quot;:0};" vertex="1" parent="KqfgTV9DE77OCgo0P1k1-1">
          <mxGeometry x="5" y="100" width="10" height="80" as="geometry" />
        </mxCell>
        <mxCell id="KqfgTV9DE77OCgo0P1k1-18" value="" style="html=1;points=[];perimeter=orthogonalPerimeter;outlineConnect=0;targetShapes=umlLifeline;portConstraint=eastwest;newEdgeStyle={&quot;edgeStyle&quot;:&quot;elbowEdgeStyle&quot;,&quot;elbow&quot;:&quot;vertical&quot;,&quot;curved&quot;:0,&quot;rounded&quot;:0};" vertex="1" parent="KqfgTV9DE77OCgo0P1k1-1">
          <mxGeometry x="5" y="350" width="10" height="80" as="geometry" />
        </mxCell>
        <mxCell id="KqfgTV9DE77OCgo0P1k1-2" value=":PlataformaEmpleo" style="shape=umlLifeline;perimeter=lifelinePerimeter;whiteSpace=wrap;html=1;container=1;dropTarget=0;collapsible=0;recursiveResize=0;outlineConnect=0;portConstraint=eastwest;newEdgeStyle={&quot;edgeStyle&quot;:&quot;elbowEdgeStyle&quot;,&quot;elbow&quot;:&quot;vertical&quot;,&quot;curved&quot;:0,&quot;rounded&quot;:0};" vertex="1" parent="1">
          <mxGeometry x="870" y="180" width="110" height="1130" as="geometry" />
        </mxCell>
        <mxCell id="KqfgTV9DE77OCgo0P1k1-5" value="" style="html=1;points=[];perimeter=orthogonalPerimeter;outlineConnect=0;targetShapes=umlLifeline;portConstraint=eastwest;newEdgeStyle={&quot;edgeStyle&quot;:&quot;elbowEdgeStyle&quot;,&quot;elbow&quot;:&quot;vertical&quot;,&quot;curved&quot;:0,&quot;rounded&quot;:0};" vertex="1" parent="KqfgTV9DE77OCgo0P1k1-2">
          <mxGeometry x="50" y="100" width="10" height="80" as="geometry" />
        </mxCell>
        <mxCell id="KqfgTV9DE77OCgo0P1k1-11" value="" style="html=1;points=[];perimeter=orthogonalPerimeter;outlineConnect=0;targetShapes=umlLifeline;portConstraint=eastwest;newEdgeStyle={&quot;edgeStyle&quot;:&quot;elbowEdgeStyle&quot;,&quot;elbow&quot;:&quot;vertical&quot;,&quot;curved&quot;:0,&quot;rounded&quot;:0};" vertex="1" parent="KqfgTV9DE77OCgo0P1k1-2">
          <mxGeometry x="-315" y="230" width="10" height="80" as="geometry" />
        </mxCell>
        <mxCell id="KqfgTV9DE77OCgo0P1k1-12" value="" style="html=1;points=[];perimeter=orthogonalPerimeter;outlineConnect=0;targetShapes=umlLifeline;portConstraint=eastwest;newEdgeStyle={&quot;edgeStyle&quot;:&quot;elbowEdgeStyle&quot;,&quot;elbow&quot;:&quot;vertical&quot;,&quot;curved&quot;:0,&quot;rounded&quot;:0};" vertex="1" parent="KqfgTV9DE77OCgo0P1k1-2">
          <mxGeometry x="50" y="230" width="10" height="80" as="geometry" />
        </mxCell>
        <mxCell id="KqfgTV9DE77OCgo0P1k1-13" value="AccedeAplicacion(user: String, password: String)" style="html=1;verticalAlign=bottom;endArrow=block;edgeStyle=elbowEdgeStyle;elbow=vertical;curved=0;rounded=0;" edge="1" source="KqfgTV9DE77OCgo0P1k1-11" parent="KqfgTV9DE77OCgo0P1k1-2">
          <mxGeometry relative="1" as="geometry">
            <mxPoint x="-300" y="239" as="sourcePoint" />
            <mxPoint x="50" y="239" as="targetPoint" />
          </mxGeometry>
        </mxCell>
        <mxCell id="KqfgTV9DE77OCgo0P1k1-14" value="respuesta" style="html=1;verticalAlign=bottom;endArrow=open;dashed=1;endSize=8;edgeStyle=elbowEdgeStyle;elbow=vertical;curved=0;rounded=0;" edge="1" parent="KqfgTV9DE77OCgo0P1k1-2">
          <mxGeometry relative="1" as="geometry">
            <mxPoint x="-305" y="300.2758620689656" as="targetPoint" />
            <mxPoint x="50.00000000000023" y="300.2758620689656" as="sourcePoint" />
          </mxGeometry>
        </mxCell>
        <mxCell id="KqfgTV9DE77OCgo0P1k1-15" value="solicitarDatosOferta()" style="html=1;verticalAlign=bottom;endArrow=block;edgeStyle=elbowEdgeStyle;elbow=vertical;curved=0;rounded=0;" edge="1" parent="KqfgTV9DE77OCgo0P1k1-2">
          <mxGeometry relative="1" as="geometry">
            <mxPoint x="-305" y="359" as="sourcePoint" />
            <mxPoint x="50" y="359" as="targetPoint" />
          </mxGeometry>
        </mxCell>
        <mxCell id="KqfgTV9DE77OCgo0P1k1-16" value="datosOferta" style="html=1;verticalAlign=bottom;endArrow=open;dashed=1;endSize=8;edgeStyle=elbowEdgeStyle;elbow=vertical;curved=0;rounded=0;" edge="1" parent="KqfgTV9DE77OCgo0P1k1-2">
          <mxGeometry relative="1" as="geometry">
            <mxPoint x="-305" y="420.2758620689656" as="targetPoint" />
            <mxPoint x="50.00000000000023" y="420.2758620689656" as="sourcePoint" />
          </mxGeometry>
        </mxCell>
        <mxCell id="KqfgTV9DE77OCgo0P1k1-17" value="" style="html=1;points=[];perimeter=orthogonalPerimeter;outlineConnect=0;targetShapes=umlLifeline;portConstraint=eastwest;newEdgeStyle={&quot;edgeStyle&quot;:&quot;elbowEdgeStyle&quot;,&quot;elbow&quot;:&quot;vertical&quot;,&quot;curved&quot;:0,&quot;rounded&quot;:0};" vertex="1" parent="KqfgTV9DE77OCgo0P1k1-2">
          <mxGeometry x="50" y="350" width="10" height="80" as="geometry" />
        </mxCell>
        <mxCell id="KqfgTV9DE77OCgo0P1k1-20" value="" style="html=1;points=[];perimeter=orthogonalPerimeter;outlineConnect=0;targetShapes=umlLifeline;portConstraint=eastwest;newEdgeStyle={&quot;edgeStyle&quot;:&quot;elbowEdgeStyle&quot;,&quot;elbow&quot;:&quot;vertical&quot;,&quot;curved&quot;:0,&quot;rounded&quot;:0};" vertex="1" parent="KqfgTV9DE77OCgo0P1k1-2">
          <mxGeometry x="-315" y="550" width="10" height="80" as="geometry" />
        </mxCell>
        <mxCell id="KqfgTV9DE77OCgo0P1k1-21" value="posibilidadEntrevista(boolean posibilidad)" style="html=1;verticalAlign=bottom;endArrow=block;edgeStyle=elbowEdgeStyle;elbow=vertical;curved=0;rounded=0;" edge="1" parent="KqfgTV9DE77OCgo0P1k1-2">
          <mxGeometry relative="1" as="geometry">
            <mxPoint x="-305" y="559" as="sourcePoint" />
            <mxPoint x="50" y="559" as="targetPoint" />
          </mxGeometry>
        </mxCell>
        <mxCell id="KqfgTV9DE77OCgo0P1k1-22" value="fechaHoraPropuesta" style="html=1;verticalAlign=bottom;endArrow=open;dashed=1;endSize=8;edgeStyle=elbowEdgeStyle;elbow=vertical;curved=0;rounded=0;" edge="1" parent="KqfgTV9DE77OCgo0P1k1-2">
          <mxGeometry relative="1" as="geometry">
            <mxPoint x="-305" y="620.2758620689656" as="targetPoint" />
            <mxPoint x="50.00000000000023" y="620.2758620689656" as="sourcePoint" />
          </mxGeometry>
        </mxCell>
        <mxCell id="KqfgTV9DE77OCgo0P1k1-23" value="" style="html=1;points=[];perimeter=orthogonalPerimeter;outlineConnect=0;targetShapes=umlLifeline;portConstraint=eastwest;newEdgeStyle={&quot;edgeStyle&quot;:&quot;elbowEdgeStyle&quot;,&quot;elbow&quot;:&quot;vertical&quot;,&quot;curved&quot;:0,&quot;rounded&quot;:0};" vertex="1" parent="KqfgTV9DE77OCgo0P1k1-2">
          <mxGeometry x="50" y="550" width="10" height="80" as="geometry" />
        </mxCell>
        <mxCell id="KqfgTV9DE77OCgo0P1k1-25" value="" style="html=1;points=[];perimeter=orthogonalPerimeter;outlineConnect=0;targetShapes=umlLifeline;portConstraint=eastwest;newEdgeStyle={&quot;edgeStyle&quot;:&quot;elbowEdgeStyle&quot;,&quot;elbow&quot;:&quot;vertical&quot;,&quot;curved&quot;:0,&quot;rounded&quot;:0};" vertex="1" parent="KqfgTV9DE77OCgo0P1k1-2">
          <mxGeometry x="-315" y="680" width="10" height="80" as="geometry" />
        </mxCell>
        <mxCell id="KqfgTV9DE77OCgo0P1k1-26" value="solicitarCalendario()" style="html=1;verticalAlign=bottom;endArrow=block;edgeStyle=elbowEdgeStyle;elbow=vertical;curved=0;rounded=0;" edge="1" parent="KqfgTV9DE77OCgo0P1k1-2">
          <mxGeometry relative="1" as="geometry">
            <mxPoint x="-305" y="689" as="sourcePoint" />
            <mxPoint x="50" y="689" as="targetPoint" />
          </mxGeometry>
        </mxCell>
        <mxCell id="KqfgTV9DE77OCgo0P1k1-27" value="calendarioFechas" style="html=1;verticalAlign=bottom;endArrow=open;dashed=1;endSize=8;edgeStyle=elbowEdgeStyle;elbow=vertical;curved=0;rounded=0;" edge="1" parent="KqfgTV9DE77OCgo0P1k1-2">
          <mxGeometry relative="1" as="geometry">
            <mxPoint x="-305" y="750.2758620689656" as="targetPoint" />
            <mxPoint x="50.00000000000023" y="750.2758620689656" as="sourcePoint" />
          </mxGeometry>
        </mxCell>
        <mxCell id="KqfgTV9DE77OCgo0P1k1-28" value="" style="html=1;points=[];perimeter=orthogonalPerimeter;outlineConnect=0;targetShapes=umlLifeline;portConstraint=eastwest;newEdgeStyle={&quot;edgeStyle&quot;:&quot;elbowEdgeStyle&quot;,&quot;elbow&quot;:&quot;vertical&quot;,&quot;curved&quot;:0,&quot;rounded&quot;:0};" vertex="1" parent="KqfgTV9DE77OCgo0P1k1-2">
          <mxGeometry x="50" y="680" width="10" height="80" as="geometry" />
        </mxCell>
        <mxCell id="KqfgTV9DE77OCgo0P1k1-3" value="" style="shape=image;verticalLabelPosition=bottom;labelBackgroundColor=default;verticalAlign=top;aspect=fixed;imageAspect=0;image=data:image/png,iVBORw0KGgoAAAANSUhEUgAAAXwAAAEVCAYAAADjHF5YAAAAAXNSR0IArs4c6QAAAARnQU1BAACxjwv8YQUAAAAJcEhZcwAADsMAAA7DAcdvqGQAAFQaSURBVHhe7Z1frBdHlt/P5iHaUTRkbf54TSwBYmfIiGCheBkPsEQGnD+6liYRL6vZS2YsRCI5UtCitZ+wX2L7ybOyhhdLEWIZBOs8ZG8yloxWGptrhRh2hZAQzNWOd5dwich1MH9m5+5qE+WFnO+pqu6q6qrq7t/93X/0+UiW+fWvurrq1KlT1X1//T2/8pghRVEU5Ynn79j/K4qiKE84GvAVRVEGggZ8RVGUgaABX1EUZSBowFcURRkIGvAVRVEGggZ8RVGUgaABX1EUZSBowFcURRkIGvAVRVEGggZ8RVGUgaABX1EUZSBowFcURRkIGvAVRVEGwkgB/+EnZ+jFV6fopv2c4uZZ+/2Dz+h4pqzUc3bGfjKkjjWZoZOvnqGPHtiPjGnTSftf+N3icp8+ettdF/+5vuL4UrajGzfPnqSTRfPW/SmXWwwwrmW/UhRldEYK+HNzRJMH5mk6FxBmpujoRfvvdS/R+2cO0Q770Wfty6/Sn35/u/20cPYc/h796ZljdOEw0bsXlipafUWzt56jU3xdc+15OioL1nr67luv0nfXmVIrg/t0+84a2vyM/Zhi5hJN74YdDxJNfUYP7eGlYTsdy/iKoigLZ4SAP0PTdzbT5Atr6Pw1F1T9XSH/e+ouH7tLR7Fbczt8XgRefNsEELeLr3fz9fkT5+ZRIYPdXrRrRh3y+VM6L2Xy7Nm4Qf6PHa2cY6+Nz8d55+0f8+8Ojn9yn4/U7Yk/u3MqHnAQ3fo0bbQf1z67hujOfXqIfruyVbvr8127pC2wAcrzXRH6jGtW7bafxR5v8/fSjin6yLbZfMeInd050S7ZXf/tj2n61hragkWoalPzLuTyuUt8Pgfft16itfw5tmE43sZ+tZ1sfV57zJ2C2b2ftHW5u4fKDjgfbbJ3d83+K4qyUPoH/Jkv6Pbu7bR2+zaavPiFDcSX6F16ni788Hm6PTVDew89xwex6/V2ayh/a5Y+5wD5+ZV5XjC8nT3Ot7vkUwfssQcbaFJ2zQdpkubpNp+HhUR28XydPbaYz+VzH0qAmDhHtH/negkgR+9wu858j07QDTpvg8zlTbu4Xu/Yzlfs7nwNXZ77ig/Uu/b3X17PAe1jenfTwfCcHtykbVK/tBs2uIw7IFP/kU3zZnG694gu813Rfrkmt+EFd8fAbbrCiyMWllvztPk1bsPWuzRN3OY3nrPt5aB7bz29iWuIvfj7qo3GbpNv8HeHuC45xsH3vXk68cPE3dD2fVL/UbcQJGwIe8hdAF///LU/4fG09ha7YUHha35wg7bgmiiDOwW0n9uFfqFPt780Af4osV3ZLoQ+SgMAXyTuv/1GUZTR6R3wb167awMrdtleYNm0ntbi8Y3dFTbZTvvxGOjCJd5lPkf74yc5dpe8cSPvkMG69TQnu7xwN7/lWQ4s/N0W+9mnXgzsLhbcukETr37ICwqZIMOY3T/XsUk+cntnZDda312grQh6fH3ecc7N2aDM5+zdbYOVA4EafbcfH37JdeCzf/zap2a3+voNDrhr6Om/5TIHtlWLIfqE8/Yc3lcdm37P7G6lTa6+A7vsI6I1EmDlHHsnQ19e5X46e3mPbR7wHZmz9zNP0x7YWYLvPL37ut9nBx5FmYVg+jrfqaA/ng0B7CHjsP0Q/en3v26DPH+BemUcEfiJzqMP7+Fuj5H2H6Rj3A53ftV+6zfk9afRfzmqKMpC6BnwOXjYnansWGWHxxEfgQSPMext+018tmf47HiBd6QXecHwgp2A8rce0Rz/E8FAcLs/2bECE6Al2ErAysDB4wgH62oh2ordqWkvduvA7Iq5jjv4hN3oLO2X3a5dbJgd3+dzsHhwv77Gi5A7B3cnEuwsQdB98Bm9w3cXJya218fRD2szqZ/7/i1TmoE9zb+qIMrcPMtBm4Oj3FFsJbkbqq/jdtHeOe663AeMCW3dTHvdgufx8Pqstzh541j9HQWPZMzjIHk05ZC2mLII2A48djl52QX5uP41pj04LwjmsHv4dwT3SMj1J9V/RVEWTr+AP/MFT0QvWOMxDQL9Ot4R8+3+BO8ub2OXKjtw+wzfFhVQnv/XmMA2SGNHXf2xF4vAReyMr3JAmafZexyEJ/jWH3cXslPOg3K38RgBjyekXdgt1s+q99y5yp95x0rP0+R2LCR2t3sF37mFi8/h69Du7fQbL++iSWmLO8fUAxCk3KMklN/yhvlDbRWMpc+mb243vXbnZq9vCH5hEMTCSO568a662kV7wP5sI/Sh2lE75Lv6+hJ02d5v4o/LYpf6ebrs7g+ROf4e0RFeINe+/AqduGPvUOx4on3YveNRz+Qetp/cAXj14/n/G2tMe/i4H8z9BQt2wHhOnFvD1+LF3Nog1X95pm+f7yuKMhq/8pix/27lT372P+nRL//Wflqd3P38p/Tffu079Dvbv26PLCN//XP6w//0N/RP/s1v8n5b6cI//of/gH597QoYO0VZhfQK+Nf//H/Zf61e/scf/2f6eN3L9O9/89fskaXmr+jzH39CZ60p/9E/W862rD5+fe0aDfiKMiK9Ar6iKIqyehnhd/iKoijKakQDvqIoykDQgK8oijIQ+gf8xivziwd+ipd7rb6SZZD2RD//XFbwk86VJ5pWsRLs1daGnm2sJTq6U4n7LRed+oj3IhZ/ninDoWfAr19SEnGt95Z50gC8pamCW91ZDfbq2cbeInzyMpz993KhfqssA/1+pYNdyQdEbwbyCdjRmpejLkNvZuI+HbcvRkG/5dh2fO/kEfB25yHayDsyecnpFvHiUStKYkcvExFvx/I1IK1weuP3qjdkzY6nfhlH3gCV6z2iI2f20e3qO7zliXpd+TW0Zytf67VXacsFrvPOGrrMx37/8Dz9nn0ZCrIM0LCp28oceJ5O3Lkhdcr3z16qX2zCtf0gw0GkfunJXp/YXoEtzLeg6qvUQ9V1TTu4v64+scV6Os823ow67/HxqafFPgQ7SvuNXXdgfF6f5XN4LLjN5pq1zeTzMyiTsxf+bXbMZny4Hle33z/bd/TB2fLUG0RHc7aRdnl2qNpQB7zAHtWYHiKS4xi/edpy6BhNfsltm9vF9W+Qfs0Gx0ybGj4kbWQ7ybHt9HnVb/RtG03HtnfE7RZftr7ufEJ8Jh4bM15hOeo+Dp7fAHNtOy4y3qF/wwa+bylKjjE9wzeTUSZhQzQrFkGzp9BmevNMHWRk15UQOgtIiax57H0N18Hr+ObN3ErU7cwu2iITymDE0w7RtxqiaQZMMJFVuMjBk+t0Al5/+cw+KS/yBfJGroMnXkPYjY/FtpDjwLxZK9IDEqTwhrI5l0Sp0tSHdpzalLEFB6N3znGgFVvcpdPeo6/9ts0iexEI2/ltSNgrAONT1/0w03dny40l22Tt4AjtUcF9PC2yFK/QfnuoSMaHTBvZ/0S8D28T4zU3s5BRw/aOXLutr/OxsqhbVK7HONy8wMEeC18lK8J4410L3hndIw32SlfGFPBDbZRKNAv6OBkRtKQgVkLorEEsslbBO7PrkAx2uyWLXGcDbeYdvsO8/p8STYuxEgBWV+apddjN2b4lEOmASNgtsIU9hrbu3c2TFtIDb39Gv+QjIs8guzq3KFqZge+XJnQtR1EvWJ5wnAM2wCOE4M4sYy+HHR9n57WZvle2bLFN2g6O0B5BEJXxNjpKnciK5eVp2r6m2e7Q1/MkyvUYB9Nmz28hPmd9X6Q5gkVVUbrRL+CLZg52SfiA29v0M3zZIWO3h1t27LoCEbQCCaGzgJTImgM7oCubze7OC+5mt2nUG0Owg2uKppX4M94Nkt3xhZiAlBJ2C2xhjwF57iy7zkcEc8rdgZTDXY/R98FuzwiL/bU5iRH1ygpztyPn+Ttjn1jYzh7O2sthA4qzM+5C0n03tH2fs4PDt0ewIMhn3AHYzxWpMWXafAhE4n6h7e1BS1u7fcKxiegxDlhkzQLu9dHz/VCkTlG603OHz7eQr22maRHFskJp9huDuV2WXRF2e/jlBBw1EkFLkhE6C+DdUUNkzYEgaXd307y7kuBb1Ylr23IVJqiGomllfp0novRtar6afI6msFvCFhW82EgCEb7rObCN/pU7F+XsDtcJlBlhse+ItDTa+g63VfBsUfzFVCxsZw8n7RUwS++InZ8TETUEoVzfQf77kh0coT3qNro+fsxtNITCc/ago4sPAbkLQ71TRAnbG7q0G7B947FJ0WMc1lZifd5dsTfeyPcARVZnN/0Vj9KVJ1tagXdPx+WPzPhD3cdErzV3cEoT+eOg/SPo8oLd8Be0X561n6TpF/R5taIshDE9w1+hVLuqD+ldSmvEKysZ7J7dHV0iaY6iKL1Q8TRFUZSB8GTv8BVFUZQKDfiKoigDQQO+siIRfZz4N/mKoiyI/gEfv3yRn72N9+dgMsF7CmD1pbqG9KGnDtDM1BL//G31/OQOcgYQuRt9DPFrnPBnlHNzRCde819QWgqa7RiNuh5nG5/UsdUH+tjy81ePfmJ14xqHdhY+FqW2Ll0/utIz4NcvK+ElmRUhnjYKeNuxw4s0NTxwmTdIlZreImYV2+lY9NLTju8vx09om+0YjXI9eHs6+1LYakFeMMSLfx3shZcv4/dmlGVhbOJpoXiUL1BlhJ72Xk8Icsku1nulXES3jCiWHLMCWO5a9e/DI+GsRr2Oun68MVmJbHniXCLk1iJAJudZ+YXwc3Q9duxKWsAJiLljnpgXnN8Iaq03fWpcvymcFYuCBTaxbXN1GlLjUhb1cmNVT2DU4V7+Me3D7+FDMbJa5O5N+jgYH2f3Y9RmF08cbp13TVsWfY+v6fqf/K4xDhCns/3edJAubLzaarNaZC9VL2xRi55JH0UMzfgN7f42bTn382w9gb3EdyEi+ArRB6Y+adPOmcoPnA840j4Ti+aZsjJnfV+v/D8u3xzr1DwyfWgXoKvH5Wv0g6336MeJso3r+ONW+WLdrnCscnao586ew8/zONyQc9HH/dfyY+ELJ9bXafpiRaqtDbFE40/hfEvMealjaVi0Z/hpYS4IcuHYXZrGnX9CDO3hJx/Tu1DdRDnKCIc1iOp1RIJVv7CHK9hBugiQyZuPfEwGkSd27pymwBhPFF8E7bITAzvIjniJbiaunxTOYufKCstlBODyNMW/siJqGeE7I0ZWGJ/I7k3RucguXh2VkByuefFqdTscCqCZY464PWmhNyfwx5O2o83ia0I6AZPWSIakxdDgN++/HCZZL9vLiQhCRsHMBVmEc4JzHX22C0H5rMhhak6at5BdwMoJ0Jl+/zb9O6/sjux1jE+IfbkeJ33RFBa0ZO1gRfjg3+ce0X75niqb5MYidZ2cL6bbysdKYnuu3sL4LQWLFPB5dcwKmUVEYmjQbjHCURDUSr3yn6CkK+IJVj1lD4W4F3vYGUoCZAGpcygjIOaJoH2TP0p/ccvvVvZmXQ3hLJARlmsXgIuJRb0yYwXWpYXv3PgUBc08u/9Gm12qjZPRzBEROnnpql6ASgJocXtK4wC62iy+JmQdjAzDGfoIindeH43/pf2maK/Kd+uXzF48awZCZB3Qh4aUxSg+GxOVz4w16DInUwJ0yTErXAekBAjz4nbpeViREFosjUV4nbwvOrqJJVq/C8q1tHsR6RfwW8TTKvEorGIlYS6HJwjlRLpq4aj79PkVXh3F4DEZ4ayYSLDqz+zhELOrkh2hf8sWEAXfzDlNATE4lnEU3MYdv/6rtEX6y7uBtzloyC1HWFfd/6iPuAW15erbWuwq2gXgiqJepbHCnUVC+M6NT1PQzBLZ/b+22aUShzMT0QSUGZq+GC9OaeL2NMfBp5vNksjffrAz47ZT2MfS37Ja7WXB4ic7xju/oL/hz7gDEr9o3PZ38dkmDcFBn8xYgy5z0tz5oE3+I0EL/MH+M38db+wjAcJ83f3tUBqL8DolX8y3tTlmdqEIyo02fuOg5w6fb+Ua4mlm9QuFvdggRWEuC0+gWAytFo7iHSffMk969igKZ6WIBKu+ZQ9XeNcv/+rIDDBW75P38udgYsgK7wmINUXQcC73jW8tv/uNZl1J4aysKBjalROAS4xLitJYZYTv9ty5ysea41MR2X1fq13qRyCVCB36f4Bt1GHXGrcnNQ41JZuVweKEcRKZhz1hH0vPYVvtJWDh4DbzDpN2/yb9Tk64rbPPWjAWW015PL/OkhlrUJqToB4zblPqp7Syu0UbeGEsXKcpQFiou68dLLmxSF2n5IvNtubE9nhOTfFnjCv8ZMR2jwuVVlB6IX+MC7KQLS8rrT3KykV9ZRH/aKsoiqKsLHSHryiKMhB0h68oijIQNOAriqIMBA34g8L+HPTBDH20xC98KIqy/PQM+PjpWFkMqJ9IkkF+7tZVdOvBZ/2FzxbKclzTMTNO0baviHbvIvrgU5pNvt+QgK8vPzOr/jtDf/iTUUXSUvAidDbxU77OtPnkKPUvtE1joM3n+PuTvRdtLPjdfwpYnpftsWB8LPBaJVsu59xeDvBH27Hxsz96/O0f/NHjG/ZjVx789A8ef/vHP7OflJqfPf7RD370+EcrwDQ3fvyjx7/706/sp/EhY/8fph8/sJ/HzSj1L3abFs5Xj3/yH0YZD3PeePwJvvkHj39y335cVBbxWvenH//uCDFrtdLzVzpYaXPiUqGg0u8fnqffq4ShrHiavMruRJGw23DlGejHxKJmNpE2fj+LF7PwJpwRlUIZiDBZYSLofNg31urf2uL1ek88TF6zxxtu5rzqeEbszQghWTGs579B9F/+j7RrB3a89pV90dapXt6obWPONf0wL+TUfTXneH23Ik6E/oq9uD/STl/Yjc/7t8/T7f/oxLn+Be2/8sdhez171nYyL4WYa5r2hUJOtWCUsU38RmeN/xtm7PzisSn1Y4fYxlzHXNfdXdTHcf753bM06fkMfMyvOxQvc20t+SRE2er6/c+uHdKv4jmeb7h2YFcotnW2R2Fro0icS+xhx7Ael9I4SlGz84z93I3bs5cqH8TnI3Mf2utCo6UWdWu21wB/qIQEPSFCIwCHcp7/RWJrtNuNX233em47u9aCfM7OQtUOU38txId2NwXY5O7S9jOcl21+bca1GTM82wT1eTFH+mH9KzPOq5kFPcMPxaVCQSXzVqsVhmKjOsGgC4eJ3r3At4kJ4bQkbPRAcMweNniCWAUC0St7LCYnICZiWHu/Zj+xc703z4PPZQOBJGDebJ2+fp8eXp+lywe21deKxcSyAnGhCFwg2gYdHsaIcz2VaG8X8S1rLz4mwmkFwaxO8IRMi7qF/cgKYLHNJiFvYAOT0TqyPsOLcVx3l3EMfTKsfy7TjtI5lBqre4+swF0zCDTEuTJCbflxTBGNG9683hoGU3NdBK1me5OCfAlQjrjOC7xZS4l6mTa7xdqj0UffF+vyqfpdu5sCbLyB6StQVvl1PmbkhQITomaFcV6tLCjgJ8WRfJwwFAxnhYxEHsG9zp4QN0rSEBxzdNNaCUSvkkGNnTIpIBYJTIkehj22fRsHiPC1fcgFwOGhWTL5QrQIeUJb/ycnRlUJaeVw7Um1FwuOfWU7K74V2WtdWciqEylRt0Q/8gJYEf65Ud3t49juk51FvixJ4TCMvcgDNJ+Hu7KQ4gBpobbSOKZo93PXh5zQmTkWa0I1gU4O8ho0A3s0FzyaffR9MTRQXL9rN0iNTS+BMp9kzGizt2kz7gxk4SqM82plvL/S8UWSfHDcDo7sfjGpvWMpUafqmGi9oBweWfBEb2gcZ/DFihBoZeUOV/XeYm/ieNYZZ76g83bBqrAOIlorfrxHXz2hrV92EKMyZCZopr3dxbcs2KFnBLM6g52wXCOz+7OYnTnKhbultc8WFvu47sw4lojrz7XDxz8nLRyGQGJ2tNUiZ3FljTgXdqQFobauftegXlBiUu2tj6VEB+tjKCf9waOUzn+UT/ex9sVaq6it/nBsTB+lfKtAWUQuZrTa29yVSN3y1CA/zquV8QZ8CYhYJSNlSk8waOIc0YkJNqZ3TJ7TSrmU0JPbLfCqzLd/301rHFfILhs7BXZCRyB6td08ehlJ7I3bMolHUnwudhiTh5wsrgN18//8xzkgEhP7rRYxqhrj9NjRnPxzewgk24vFhNvFO6Si+JZPSsgKk9EXqSqRFXULyQpgAVn4uQ4+HqzlibrDcbTl2vDq31hqh493DqXGCjbiOuDL+3eGi1wozoXxKwi1dfa7JhLEuS9xer6U0FlKkC8lRFjdQeGxJeZoJ1J99H1xezVHSvUXxctk1w9yAmUxmZhRsrcXj1C37OgL47xaUWmFMeP/cVMZFjr2ykpnvDv8QYPbR7P7PKITXlGUFYju8BVFUQaC7vAVRVEGggZ8RVGUgaABX1EUZSCsvID/YBRRKEVRFKWNFRbw8RLHjeAlC0VRFGU89P6VTiBKhJ8f4uUEK3DUEDPadJBO0adFgaSgvkgU6k36uHpd25TPiDIpiqIorfTb4T+IRYlyYmJWzMiKmmUFkuL6YlGojqJMiqIoSjv9H+n4okRZMbFQzCgrkIR36bPCaNRLlElRFEUp0y/gixaFJ0oEHY2SmFgC7N4rgaRvRPU9gC6HLSjP87uJMimKoijt9NzhR6JE69rExEKaAklxfb4oFLWLMvUR+lIURRk4Kq2gKIoyEFbYzzIVRVGUxUIDvqIoykDQgK8oijIQNOAriqIMBA34iqIoA0EDvqIoykDQgK8oijIQNOAriqIMBA34iqIoA0EDvqIoykDQgK8oijIQNOAriqIMBA34ivLEYtRlT2rqCMUyUsBHWsIXX4V+PdHDT86EyUgefEbHX52im/ZjXxr1Rdw8O3rdK5aVkLh9gVLT8Injo/RB/AX+1GVc79NHZ3u0ccnksxFYzXxYego2QYKiAwfpmEk810K5D23zEozsA0KLDRc6R7r4wgJil4mJ3fq/nDFshIA/Q9MXn6MT0MG/MENrX361SmW46PCgIf/tkwUSvQw4cfu9R3R56/N0IZHxLObhJx/Tu3fsB0Uo2mTdS/T+Us3NRWWlzxFeWHkMkNO7NfXqMsewEfTwsRJfpc0/fFUSlmDln5jbVQd9rJKvP6IjmMBYVYME52YllA7zzqNeKHhAbXJyQb4jvo5JeE6EPLb76HZVJvqMgPEWkq/U9QRJzqt24LxUu0yfJPF6IkG6a3N1vHT+AhO3v//yV3W/nY3i9uO7wGZr6ATGg2B7pI+05WQsUp8T4wGsHQljKmkl/esxXr/D8TP1nN4Y9icuY3zH75s3xrj2a0TvBO3z7fotmrz4Z3XZQ49ootCWzn1iqvKNsoBte3gNvXvO2R/jGfsKxszOiWoMahs3/UX+yXj2AAeepxN3bnj+Wyftd21bW40hxnwXzb5e2+/87lmaRLIgLr/f/872mTBG4pfcN1efP6bOj9Z5vuXbxM7z2F4u6VHlA6l2t85NYK6/93pt/4XNkZ6+UMUuP9Y4m0gJJmMb216M7/5roX3mKrt/jX6w9R79WOp1vhSOke+Xi8EIO3xkqTKZqMrPBtmZGwnOsRLCgHWCc2HmEhsQHT5Gpw7YYw820KSkQjxIk5JGcT1999Bz/IUxzEbsbDi4/umZ79EJukHnpS3pJOcPv5wXR0Ei9R3JdgGbeJ2PXb4yU9/6sRMsZeL2m648+n3xqnlsFrS/Zu9rsA/3n4PP7D127gs3iLjchcPzdJpvLcPPfy67pC3skFW7pS1mPKo0knzsnXNYqDAWd6Uex8Nn9vH1zPmUSTFZKtPsGzKm8XVlYmynz+P2yVnOrv/UK8uTLHednn1CoDh6h+sM/IjBdaQ8+/rcNtNmukvT8r1tkxtTOQFwMGj0IecvNQgSkrbz4iwRj6kk7Wcf/MuUj+OOCEEOKUIl41xtk6ekts30Jr6jeP7Il9Yv+ditWfr8Abd36q7xLVzfFDF3DY25ZcnZyyN9fmpupq9PO1/hc60d5r7ikDPiHOnrCx7x3HKk+rb25V1sY7uYU9o+xu6/Tf/Oi2E7GjHOlF1MRnqGL3llrfMiD3mSZILz9bR3t02JGD9Ps/lwkeJQWLdeVsYX/R2Qx9wcD7AkR0eda+j2lxi4dJLztTs329SKZ+ijv+iWeD1gyRK3m1vDLc9iQpiFFc4WtL9yCi7DO6EXkR5SdgwGnIvHbG5S1Z9NODj/HtsGOyGv3ejL2met3QVjQ+xSZMJZ1q7DzsqenyFfJt23mFT7UuNSbkv3Pgm3btCEtaPxoxAzlhtoMwcdg20TcjybAwFBH7L+kiJs9/9O+TjquPipPC9Obrg28Xjj/5n54/ulQ8bE60t6bnm02KvP3ATx9dfyIom/69R3WT595gjo6QsC152YW6DVNiBhn5Td22LcYtA/4PMKeRzB+pmn6xU5hQxgM8G5PPOXHYbn+KjLfoZBBewkCCspVj+Ld03JfSuDdZ8+v8I7LnGATJJzPMuUFZ2d4/+l25UF/ZC24VaOnYkHevESt5t/GyfB30pcYPHa74IkdipXNpudhA1EsImci9tbnlThZ+O5spuUtvBi440Rdkg1Zicm5YJHJZ8S2d1rjnyZTN8igvbZYw5/0mav07NPgt3N4zv/zjCPHQcJ5k1yNu7qL45fT/o4NgpmxwpbhoHMIzV/Gnhj4vUlN7cqWuzVfW6mro+7pFna7+/KbTmDd07bHBnFF0BibjlabQNK9vHjZqcxGi/9Az7fRu7nW5UJ3rFuOeRuI1OkEpwjyNkV7cC2ekLzYB2xq3/1vA2GkZ2MeV4qgygDiHJTNIfbKPmeV1J6niZl3PBMlOvntkmScxxi5BcGUvdztH97v8Tr9c6Er7Poidvve+VhI/N92H5bMWxhdxLTvIuRye92OXiEMMH9Dz5/Rx6Jye4TbZFdVt2XajfljUW8i0Q75fwp3uVkdqqlMqm+1ZhHdmH7ImRjwH1mO34te51+fZLHBfBn+S7eHeZge09xefjZ4X3ewpTqQ19/q3kq5eNYvLnuiXNE+3dyMPFsEtxtp+ZPgmpM5A7UII8oGnPL0sFe6fPTc7N5fQR088h4An+PsIvDSHOkry84EnPLUbQNaLOPF8NupsYI4xs//RgjI/zRVlGGDAJX/aMFRVlNjPQMX1EURVl96A5fURRlIOgOX1EUZSBowFcURRkIGvAVRVEGggZ8RVGUgaABX1EUZSBowFcURRkIGvAVRVEGggZ8RVGUgaABX1EUZSBowFcURRkIGvAVRVEGggZ8RVGUgTBSwEeeSKf13CWbfRrIzHbVHy+D9kAne/S2xIzeNmObjtn7Z6Za0kSGlPrnbDA2kOgmzuCfOjYqUpenSQ4dcL9v+H4huuBV/WNqb0ynsbMa8PY/Mz7hsap9nj3wXx+/UJSujBDwkWXmOTqBxAIXZkwGq1TWmFaQuWc8muLIpNMtU9FiY9KvIeNRe3t44iMN3mpCsgo1M1H1p85qhGw/9B4HPUnd90UVnB9en5UEO12ThTRA7lfJPDSO9sb0GTubXemHzxNVuZJtXmc+jryqR91C52VKqhOdK8r4GPGRzjzRThPom7tOl9WquaMJd6A4bnbRsjt922SsqbK92Mw+bgcU7pzNucdxHb52sLu9czXa2eWuX2fJSX1nqPuSyl5Tn+/udj6WPJbIeIQdmmuz65OU534e5/J/+JOrksfSlC1dp/7Oz/EZ1y1c+Tg6lu97dT7Gztu5h+M5T6fttWXHWZUL7V8RjFk9vnLcb+cD3jTQZtori73L7WsygZkk4TN0/twaL3MRaPZFxj32G4HLIiDbTFCSSNye69objoUbR/zHbf7E70dzbB5+4o8dLufK99+ZI3tTkI5TURaREQK+SRyMtGFp5w6z01cZ5rHDCTL8h4TZ9HlS+VnoOdCc5ruKU/z9lqqOed4B8m6ocXeBrP11Rvri9ePs+Aly2esR/Fz2+wvV3c6u1uz1pn2v0u/8S68sdyF7nZlLvIgYe5464I6VMuPXx/J9x52I3WW23J3tR7tswvowKDXtH4yZPdaHHS/wda5xw5H71U+ByeT6EvuNAant1pgd81sv0Zw7F+UuXvUWVDMW//zv8T/t7ho5Ud+d22bKklmA4rEJxnk7Fpd5Y8uknWw6vddNStDkHYtL0Shp9dxCoyjjZ6QdviQjts4d5NEUXM5Wdly7m0IuSpOz0iZzThBndQ+y0OMikvzZ7QZBOgm2y9qPHJiO3PXL2fHB+mz2evPIwCZm57Ymd2k2L2aQ3d+2L6RwHWCv4/cpnxkfOUHlo5DuOzLu2zyrwc44xmT8DxIvVzTtH4xZZpyLIB/onS/o5LW7NPlCcyFK9SX2mybmMZtLAI7NSrWgJsfC1bmBNksC65axkeTb1k54LNXI9VsnzM4+pnGJzatHOovxGEpRRgn4uK1HkEgGAYOfnf6X/Nns+uDIPZ7Zy/Nim4X+/yGpMCYSbq9bgokNvHNzdRBPX5/ramTHj/hFPnu9SR5tJjeeN19OBQ/vmWzzmb4LKAzuFjpcx+9Tqm6XTR8BzpGzvfztRXbGYYAKruECKxY3c6CMP2beXQp2/gGSCN/tyPG4xe1osRDN0/kgEXXNSH5kF0CzKOLvT5mNQo5fpsbGGztJSm3thDsTF7w7kvUdRVkE+gd8may8u7S3qE/ZwzX2eSl/j+z0v1VlmG/bTYa45+MmC727a+BdFt/Clyf7LL1jzzvCgbDOcB9fH4GgmR0/4CksNGYnHWev97PfT5wjOjERRajW7P4mEMlz4HvdrnP0oj2WqXvPnav8mW1ks+nn++6eSyPr/zbagTHdaq5x+k64+E1/wOXe4x13hz+gNsfM2Pcdtm/Ievrua5tpGncY3Ibbh/dVO1q5W4oe54B8X9qpz0V/2/wn4u+nxsYbuxk8PrJ3Sx3thIVUynNfJvBYMPlYzYxR378JKEoJzWmrKIoyEEb8lY6iKIqy2tCAryiKMhA04CuKogwEDfiKoigDQQO+oijKQNCAryiKMhA04CuKogwEDfiKoigDQQO+oijKQNCAryiKMhA04CuKogwEDfiKoigDYYUFfKMQmM4+pSjKsiFZvTQxy2pnpIBvZHDTgx+myOvLVzRLz9ObrflgF5E4Hd8CWZg9aqp6qjSDCwUy1qMlKnEyyJ36xe09OcYFPEhnuVJgn+krY5zqx82zdlzHNsajE7cPOQ0m3+iTmGWR5J0r24zuv32pxqU3pTayfc6OL850ZaSAPzdHNHlg3uYfHSfb6dhbC0hcvQIZPcl7yLjqGQdIkiLJSFrbw079wQ26bT89mfCkHiEZfSPxPtJWunwHY0sWPzpx++B/KyuxOrLf9UmEMyL+uPQm30bJf+0lKloqRtDDZwd/+z5NHnpEE9e22UmP1dxLAXfgoBzHLkGMZXOLEu8M63SCa+jE4TX07jlMFqSB20e3qzqQb5UNRbyaS0o7+zk2HFZ7+R7nH6KNqH9uF197g7Rn9pDJLYvEFILXLiT6uHyL22LbNufaCuyxtdjt23Nd7llH1bdMX92ihd2wtGniPrd1lr+f5+u6+mq7IYC+/+wlcz2vTaada+j3D8/T72Xr8doTXV/uWKL+G7D7uEqb2a57r9fjIu2IAlFgA8+eKPsmfWzPNWOA/MOufUgtdflTk/oqLBtfJ7LDy19x2z6VROFxe2TsNnYokxhfZ8tTZ7bRdHyu7eeerVwGeXLFzo/oiO9XCdtPflnbbvKN79HmqciHK58N+3hk7kPbD7Tbnz9sxx8+Taf9a2fs22n8/brtdzIPkfSH7ePmjqm3nktU2Zm6nS/XYqp6DKZ98LW2sUqPi8wf32d2zthxQdnYf2HzV4g+CMdAvpf2Eu33xiS2WbNffkzizzIu1rd3N32/jj82xmz8Nm0593NpYxjLdtHs66afuPb53bM06ffRs8+46b/Dn/mCbu/eTmuRv/PiF+ZWp0eibTGuTYPXlixaUushSGVWyZsXbhCxgS5wMETC8hQPn9ln0uK98VyV/hAEya//AknSMRB+ukPs3HLJqaMk4Lm+JkBScFxDknUHCd95Yk3dlQlyalOcmPwQfct8rAiSixeun+t/QDaZe8IGyLa1tZ58LpG7SxrvQPve/9cH6rJw4ux1+ie+bysTJ3SvjyGYxedyULS2f3O3KVvCH8MwoXkhGX3Ux5D19N1DPD6J4Fmyb+VHpfHHTnIT5lD8XZTsPzOXyuejn2buOlCPmbOY1/ZYp7FKjQuT9Zka3H3ge9q6mfZynEiPgUlYX8WRrM38fqXHRXw74fuSrU1iokmluX/n1+0ZTBDLwiT7T3Xo47joHfBvXrtrkknLSuwNdsdE2z6tyaJlUflUnhfnngUiOTUGPLcqrl2HnaBJP+fTTH5tElGvfda2v5icOpEEvKWvBltfhUvdiOfh6LTJt4rbaXc3kU7SnUgunrl+rv8+2WTurQm6QZ1+sXbWuJ+GfNJ43w5moLskvi+VMXYzqQgdvi2b5xrbV+OfJd03Q8KHK5p97EZH+2bGXx6/WVvs3e2lz0wk+0/NpbbzU5jyXt5fpn2sDHG5vM/4zNB5/t6kl8yMQaq9KZu15hf2bR+NjU0VOn0WuY3N4lNRiGXd+jgeegZ8rFxml+J2jbLD6JFoO0syWTSegZmVz3diB5xVjvNqHU4i7KbMv7C7IN59yQ43B3LXWgerEm63JKeWZ+p+EvA+ffWoE77/X3p6k9mR4Da2/IdJ2y4/uXjm+u39591tLpl7pwTdnj9Uj4scfsAtXIcZJfF9qYwJjmFCd5/mudb2ccJ1JkzsHtMxGT0T9zHAX7wDSvb1yIw/5oizxedX5iWoC/Zuz/UtN5ey52eoy9dzEHQZTxCWK/uM4+EnV9k3TR7ntjEI6DJns+MC4rExi+L5i3dpD56CmEKWMJbVG4tufRwX/QI+Jr2fYBqrFhynR6LtLKlk0XA+Wfn4NmqneZ7nOyNuoSQ5NR47TLCB5ZYKq+hVum0HGw6IZNMvTvFOJblDBXUi6nqVLSWn5kHyk4D37WsFnm3yObyjkYTvL/ACym1FYmskYC8RJBcvXL+9/wjKuWTuLQm6vXHP3YVJAOAxOv4J7yCz14ns0CFheVtS8zihu0/zXHPrDjtVCdcLid1DzKImCc1LyeijPv59e7RCFldcz/tFSAf7CoXxl0dOMidiW4TJ/uO55Mifn6Yub59RM10T0KfGJe8zNbJoid257zgnOwYeXedsalxAZmwkBvF1Ea8ColhmNsl8/bdnZKPX1sdxsaqSmCPgv0Ov9NpBK8PD/MGs3x+/cM70C/aP0tWPEZ5Mqh8SPMF9VNKM9LPM5aL0rF5RFsIOe3cldzIvaCBUnkxW1Q5fURRFGZ1VtcNXFEVRRkcDvqIoykDQgK8oijIQljjg46dpfX62+KSR6v/S2UR+1oqfkfV68ac78c9mFUVZWegOf0lZIsGnDPLWJF5sWaSf48nLaPpTP0VZsfT+lY4THELgkJ9I4oUC+9p+LZSEF5+MuFNVTjDftQl2ye+E5TujYVELSIE1keiaEVEKrwc5AXsMOiAieoXXtRNiUyIoRlzevShiruleLpPfdEdCXHgVuipvBcmkzXhxgtvgBJr83zub34Z7Ykr3artJn+Scut68fUccAyfMxuBzUfQsJwwl/XPCUu4c2NUrI/3N21NRlOWj3w6fJ/hpkVY4yIEL4kYcWJICY/O05ZA5dvnKTPrNsZxgEF6NTglG2degU6Jr1fUCcSZ7DMqZH9ygLVZewLQxEj97sIEm8Xq01GmlBDxiIa5KDArlL171HseEAk15MaX7ItaFwCuv2tujTZGphH1HHQO8WbjVBv820bPs96FgVla8rsWeiqIsD/0f6YieCh5NYIeXE9cyQlQlyoJB5pXlSpQooinOZK8nr0E7wja4l2pI2hiJn/F5kM/1Xwf3ceJRRhfG6LMYTREIYnmKfLHwUklMiZE6gjZH4lF/kbHvWMYgZeOCMBRICEulBLfQp5I9FUVZHvoFfAQnCSjQkrG6FW4HlxXXStEmGIQdLHaI/F+nZ8I26ErwS4NHHUaUyTxeCMTPZqboKIWSrj4m4JlA7wK/0egwO/d8YM2JKXl1RG2WXb+0k+8UvpGw79jGoM3G7WMAnZxK88j/Y22LPRVFWR567vCdxOuH9O6mXWR0nQviWlkQ8DKCQV0FowI48ExxeQhTHd4XPS+uhbHqX6hE4mcQMqpE13wNbUMsxFWLPOF82MEWTJATU6rqsH9bCI6hnSIelbLvGMagzcYdxyAnuCXCUJE99Rc8irL8PAHSCuYPlPKH0ELgHRXzx1b7x1FFUZRVjP4sU1EUZSCoeJqiKMpA0B2+oijKQNCAryiKMhA04CuKogwEDfiKoigDQQO+oijKQNCAryiKMhA04CuKogwEDfiKoigDQQO+oijKQNCAryiKMhA04CuKogyEkQI+FCRftIm3R5e9hcple/JuXOu4n00piZE7hozvapbhXZy213buZsvupNq7dPZHv2o/HD/d/LMbPetCfgGRx15aRveP7v0btw+mGOUaOAdS4F3OW80xZoSAj6Qfz9EJaLBfmFn0xNU7vn+slzSxJtLO09eWbSyrrSVxDJK0LI4sNnI/LGfC+SeVcfvgeDDJjZAk6UmXQR/xkc480U4z2ZurnUsu4lZLtxMrrJ5Ihm3LxMk23Got13n7jC03ZfLWVud9SO/ekuJee+p2SJ3YNdlrNFZn7/pux1jvErzdS7adpszxRr/ted6OTdonddg+eO300z26HUe806vtULczKFfoZ9Unr0x1V2Q/y/fST9Mf0xcm7gPXnbJ1uQ91uepYZVNnj9pfXPul3dzn+jyu5wMkjkGSFpwX+5g3HqijMW6p8arb69fxES8sVZutzWvq7+pzwjobZH3Is5dNNh/YK7621GNsVo2DN27N+uu6ahu4up3tHc1+NMcAxZwf1aksG77k25rbKPXIca9vlX9YOviEXCeOBzGpuVAdq895+MnHEj+QJCmcD7ZMoz3MnavhscS1qvF012bqOWNtmvOTRWKEgG/yuCLDUuywhq9o9pZJj4fVspmYO4YHvpFkPEczifblA5lUejOXJEPVBb7uba7zL5/ZZ9L18TXIz7DFuGTcfkLxJm3tTCVSj2DHaSQHRzutvU4dsOXYeY7eQdL2OnF6iE2Wfq9Z7mGhnxXbD5nveYe8Hxv0TEJ5SWjudjySL3eWPucA+PmVeZp8wdvZd+yDTKxNGK/6WJwIPZcg3iSSR0pKtMFkMTNpGA8RJX2slMTe+56PSZJ3HpswOXzNXraDtLmRDW2Mvi7XN4n1/bSf+WvnwbihjvPXPMeJ5sPDQqL5XD/CMeC+JBLxp33JjUXtMylfcHT1iTgexKTmwsMv520aUZPqFKx9eZfED+zwjz3TnKPpZP3htZvXwl2DGU+/35IB7+IXbFOTHjXOhLfYjLTDx22Zc9hf2GM1LgVfvbIFibmDHVJNmGQ8QyKJdjOhuQfKr3uJ3n/rJfqNdV+ZXUK1e3KY27lUQvEU+XamEqmnMLYJkoPbPLTIEVtx6wZN2DsXkz/Xw7dDVG5ttp8+brKadJDphPJ+QnNgFvrpC5domoOcLBQ+HfowN8eTzSaER65f1686ETqXyySIN+flafpYKYk9SOQilj7Y5PD2ENpK17Hjq+8ia8bt68bma591NixdO0c8bh7efFjbkmg+1Y/UGMTzJudLsa1zvuDo4hOpeOCTmgtVWs7G3ZpPc47W7UE7mOjazWuhXzb1qH8Hs477wIv37RmOO1s3094lfmTYP+Dj9gYdQN5SeyhGFgSs+rzS/ZI/B4m5Mx2Mk4x3AcHFDAh2WuZYBdonKy1uB6fov/IugezOKgT5dW1QjRKKC9GxfDutIybqwK6ixuwIpQ6s/GinnfiYBBVbsTs25YrPFaNy2A2l++lhd+RHpF7sOksJ5Wt2vMC74Yt3+a5qW9j3jn2ox8vcJWAShYnQv+qRID6kzcda/StODu+CwS94x3dls7lTSWwqxubrEjRNcK38BXeEhWs7ApvniObDTdyBFRLNt/cjNW+6+1LKFxzj8onkXMCCx/065S8cDcI5GrYncSvBpK4lf+OSOyJ/YbcLwXt817B7e3HBWgz6B3ysUHwLNsGr/5ZDL9FT9nCNfd7G36NDv9VIzB2TSjLeDbkVk2TZiV2Kayd/d5t3svt40OQaU7yziHZWyYTiCG44xg5saGsnO0WQSN3sRrDCv3PFFkklB/eOYUchbN8nt7kTUq6wE0mUg3Pm+ukwAcVc8+QMJm4moXwMHuvw/4LHOaBjH+rx4h2rTQgfJ0LvkyDe0Uz+7tPVvzBe6AO3TZLD28NPYSFAPz6kaYyxBB7HOH29TkZf7Y5lEcpcW3aKxuan75SDqxDNh1Li/rI9a5rzprsvpXzBMQ6fAKm54J7PH72YuEsFiTmaTdbv0bwWNg6oA20ON0jyWIfHc6kf5wBNcRiACTxKQvRRz1MUZXDgKcnrj+hIj6cZ42LEX+koiqIovcFjoeopwNKjO3xFUZSBoDt8RVGUgaABX1EUZSBowFeURcX8kif9kqKiLC09Az6ct/TCwvioXkHGX7T9V5rHQVVnqj9L18flY/Q++q+GPyksap/wG/UDB+lY+td8I1IYP/btk9XboEpIN793P93s4hOrbT6s/B2+vCgx5p8vLUadA2FZBdNWI/C1sdsrJ+yGF59uNF8eVHohbwHjxbMn0M97/koHK6R5UePyLfM2nrwFip8a2VeKRY+C7QRhILwQcvnWGvr9w/P0e/ZlEncOvpeXdKCFUxkWLyt4r5Hju4n71W9WyTvnwsar5uWOW9wWq6mCAI4V17y4Ah0LnhSE37zOEtk2S/uecb+D3UbTjf7gFWn7m3o517xU4vcrbrdcM26LZxNX1rfJqTeIjkbfV8jvdN3LLOjHLpp93bbpHtc79TRdeOsloqqvdf8NtR3rPpmX0/r00ZSlqi58P/klX3Nul7S3k625vrpc2E45LnVtkGvMHrL1dxlXG+zqOqx9Nxr/EqoxMPVU/oM3gCEvIIWadaTKGN9v2rDsO+xjP3yaTouv7aPblW+HfTDjbexGu79Hb9LHob2cP2xdQ3ug4fLWejrvrgN/cH30fArtOTL3Ye1v4uum/bG/Sf8bNvfmorWF+JuUI9pftb8u1xzvpl/Q7m/TlnM/N3aDlo7M79D/cmMNQt9MxZ5MjBLMd7Db3uvuGlEZrz4cb4xF1N+kvybmvqG+fuUfUufSMcIOPxKdQifwBhpEgviYLwhlxJYO0bcagkp8m5sQFkqKcFWkzoGAUS1yhInjhI8uWPlmR1JQSrD9iYSixJEbQleZdgthW3IiZs4mGxcq5ub1tep/RVdRr0Qfud5ARCwS3aq0k7rautjOHJEoVuFa8tZiRowqEMriSVgWpGMKZdI2jOeCebt6+jqP5/XZhgRFmxCaiNXtnGnYq/KHQzx/bFlH0Ee83bw1DGDO3yqBuYYAmSPy36y4Gcp5Qbghylb2i/df/jr/y9otJWxXOB9+EArc5WJPPC4JMoKB8oa4s2FiLOL+mvkQ+mtewLDsH0vBCAE/0rIQHQ0r2CSKivXr/E5sqSmolBEWAikRLiE8RwxtBYyqsvce8S7InC+BoDJ2QVDK9ccTgPKR16WxWku/Cu2O2pITMatsMhYxt1rOIHDaSiaA67fPF0uiXmEfmVhEzBPdqqQ0etk6184MsShW9lpMQYwKZc0r+WfoIwjdRGJuSQpl2gTagEhyXLlE52NFUfadshCab7emvcQfIIcgn2qCPiaeTRt/83zKBp3GghP5b1bcLB4b4PnH2k5+Edot8L/SWAPfN7Oxp11vJy3yliLhu/F8iGxSEjAU/+B6YN+GRMkSsPBn+J7oE818QeftYNVgF9kUVEoKC+VEuCz+Of8bB6wzVGW982UFTTlng7zoGcBtm6zWNvilBZGYqC1tImb576FHEotS1RSF2Dz6iHoFfRT9FvQNt64cRP5uKLr1Z/acfrbOt9OQEL/zKV6rIEYlf6vB7ozH+K/4cyTmlqRQpmTDCgk8d+l8rCiKnWsHITRD017iDwiG8snD7+M94ztNPJ+yd0KNgBj5LwK/CXBNcbMAjI3nHzdHmIOB/5XOj30T/SrGnhzpmJQmGouov9V88CjOffjHxU95Aclo+SwyY/ijbS36hBVt8pD/3BPA2WJBJQwYl4+Fhdh5GyJcFeE535Jjs/SOlLXKj975E+coK3QUEoueOVJCV5l2C2FbMGFCMaWQ0vdNUSqzK4MNi0JsFXBGPo4+FUW9Un10dwe8E4WI2Df4sye6ZezOdLV1oZ2yg6sEvOzBFC3Xknp4HGMxKjwLxjVlck10EKQriNZ1FRQz9uP/xf4hwcrcPTRF2DwS9qquDV+xxRxBH9ksEqi5bJxYo12ALPTfkrhZQCzK1tUvhIT/Fc+PfJOvXY49OVIxKUHKd6P+VvPBozz3M/6xRKxaaQX5w479Q9tys3htQeC2f+TJ7SgV2T0vlxjVUgD/eodekWfKxz8gejP4Y/LCWUlzaQg0flywhKz8n2UqSgn8IqJxd/ZkUT2nt3ds4wz2ylJinhBUTySWgVW7w1cURVH6oTt8RVGUgaABX1EUZSBowFcURRkIPQM+fjWS+UnbIoG/aMc/MevGmNuKPw4Wf47XE/yyZBRRuFHP68pI9adsvXS+Ah/Bz+ZG85N2RvdBRVlZPME7/JzAlDJ+ltPW5i1SvLyzWD9zw0tsy/ETOkUZNyMF/OkPoh0Vdr/+ywmM7IrexkshU/Tf7cshqV2Y2505CYDqc2M3jR1jVIe7ri0b7vT8HWZ9rn8d0776fPcSS12H157qNWn38hX+83ew5rjpf3N3W9ed3z3HZeQztxGvgDfPS7RDdud+2YTNhFwffPJlpF2+HT/5k7q/lS9YoS5Qtct78SrjM/jcGN+qjLHrcdsulBPNl1vm9XyUqcbLH1OxoWlf/nsct3aL7Gj6yG3y2uP6ryiriRECfixMxJOwt3iaA7szT4yMJ1R38SoOSFN3ZWd3ahOXvRwLK9VU50ISwROOMu2DTMIsfY5jcTt54p++aNrnv4KdFsEymiMiGCaveXu6LlxPQ4QpJlsmEhLziNvhRLYuHJ43olsNm9W0CXmBXBnzhqwvWAZBLGDGRCQIIOvgjjVE6BI+I7b2xy/nV6H/Ed4I5aPwg2OU8x8r+HWv9D36aWwc29GRF8VSlNXBCAE/0uEYSTzNkRAjG0G8Crfcx77JH31hJXwtmFv+lHCUa58j3U7Tt7XPuoDP9WREsJzY000oGDZekDGvaJcFxBJlslok6Xagn9D7cY8g0qJp+T7UFMqIYBkHx7PRwmYRW0fCb/KquRPIyvnMOISxUv7j27Dte0tsR1ASxVKU1cDCn+GPKJ7maIiRdRavMnoYCN64LT9+/VdDYSUvuLUKRwmJdnp9q0TLsBPPiWBZnY2j56ih69IuIAa6lLEk2gEND+knHj3YRw5Jwa9SHxzFMvZu5iLv5oOFzbN1JPzWEGiLfQbH/PFDXUW/ytAmkNZBQC1lR1AUxVKUVcAY/mg7iniaA5ObzxNBp21Gz1uEiXAsfG6cEq+C1Ch2jhPn1tCRl78TCSuZ80C7cBRItbPuW7Xrl8BkdolNESwTCCne9aZEmGK6lPFJtKN6BR+PQia25wW/in2wtJTJCZZV15S7CpAWaGv6DO6+/PEbQRir4D9C2/eW2I6OpiiW8d/WsVKUFYJKK4wZ3G2oEJWiKCuRMezwFQd+zdFdlllRFGVp0R2+oijKQNAdvqIoykDQgK8oijIQNOAriqIMBA34iqIoA0EDvqIoykDQgK8oijIQNOAriqIMBA34iqIoA0EDvqIoykDQgK8oijIQNOAriqIMBA34iqIoA6FnwK9zpNba5kuPn1N1OVmKdrh8qgu9VpWXdRzMTI2sAZ9vx3366Kyn2b8kmBy5oS5+6tjiAFtgHo1tXCLGOebLN+f6+0W3trpY1mWsx+cTY52HIzDCDr9HViZlbEhmsBVhb3b+BaT4QzrKVKYpSUZ+x35YMpBO0csEtqSY1JvIBJbLvLVQcrZeTSyaX0hGNsSy5Rr/5aGnPDJWui9ov5czFqupZIi6NU+XxYBePtkHn9FxyXxkjyNlnAsWBw5KAMOKhxyu7rPUJ9mlkDzcHwxkF/Lyq8bnI3XdW3VWpHS7vDo6lbfHg/Z0awdV9RHtd/0Qe8xyGa5v9/foTfrY1l22z+mNtqwkViEeg0/pvC1zYePVKhsX0hm+/zLyrl6l23yNy5tMHcDV8/6zlxrXcNR9te3x2nuZ+4HgNPmlK4PPB4ne8641cd+Od51U/MWpp2t7cPtP0aemHTtnbFnYdRfNvm77BPsdekQTyTbC/+z1uD2mvwhoOF7bpLLbnTVcDonh67GfPcTt2m7q2SzXxf95fO55tndjTc5/bX+4GSn/dGPv2tMoI/WU7HiM9l8r+8+WC7nvuc5gvOr5Rh3GXNI4ynf1Odn5ZBP7xL4elLF9kr4fXkPvnnN1b6Npsbm1te8Xck7ch6ZfnN89S5OVTbzv3Lnyb7+t3lwJyvhz2LXNlKt8ytlF+riezjf8jrw6al8Asa1kDOzCW/sl97myX4v/vkF0NDd+PRlhh1+n4atvTcKs/444+38z6z92OTCWvVvgwX7nHCYo8soSvXvBq2zmEhsXg3OMTh1wx6bo6B02Gq5NN+h84y4ubJfsFhCYiuVR/11pb7I9vdqB+mpHcOx/jXdeHPBc3e56TfukwK70IE3yvyZfYJvtfEXOQR7eOjn6PG3hwJZyjOw1vL5W/begvaj//LUZvtPYZa5tA2B9rQ300Qc3aAsfR93np/g2XJKPz9LnvJv6/Mq8aa/j3iO6DOcV+yCdIVJDmglARTvY6/0QqRQv0U0+glyzt9nPJDfyxavVrfflTTzpqklu8/ByH0yOXD8NJQeAqbsykVHvHncs7k/KH/jY6Yvwh4O0Be0p+HDWjrwwFv2HA2T++9q/4/nmKPkVcjVLv2Gn1vnEtJXBGIoPzdO7c9vMmHDM8ONCRcrnCn7xlJxkbUIbaBJ9kvr9BP0eD3JlTNpNtwiQ85/Kp4w/YGxObXJ9tH7HNrx8ZUZsuJfHU2IJLwTIre2Q9J8Xv+B6TA7tOA2o8Utuk8yNdv/d2CkudGNBj3Sq28VE1n+Hn/2/mfUfk9DmLUXOVQy2TVYtRos7Z79DbtEKm3cVK20jN2vUrrk5du6NG/hfZvLnylf159rTtR1Ju6yhLVWgMYsndksI1k37pHn4yVUOWM/TJMdP7A6O8zn1zgrkErVz+eI1wvYY/PamCK8lOV9Rt+R8RZ7aeZq+cImmeZHc768/WAwufiobh/jvAeU22ush5658No9G4GdYDHE9N/nMWNe4iXjyWpx83SB1VPUagv4U/QELMQfNrA+32LHNfzr6lz/fHCV7oo0m7/EZ+uiXfKA0nxxdyjDG/htocy5RvhD5XMEvBNdnHqc53gVLnmr5IkGXMpbLVR5mtzAYP8NjMbOxiecU2/f6Ga7b2CGAF6r9vAjcnmHfjPNbM6Fftvtv17jQhUX9lU6c/T+V9V+eTctqxxPqmaf5dg2BgoPa9Vle4TyH9r5D4K6wO4pgAcqA9phAZnacxsgednJW9afaM4Z21NSLp7mNa9qnyQyd5+BuknpjFzrLt7dm59iF8jXC9qQpT2DsiuR8u7NGovnLF+/yrm1bdcttQIA07YaPrH22bn+5jXZCyDNYwAF6kws8ZkeVW+zMRLxL5xu7Lq+Oql5D0J+UP0iydxzDYwIOmn+34MMl2vyng3/F881RtOe6l+h9rhM78tm/4s9d/HgkX6/BXUVN7HN5vwjAnQbhTgC79wxdyljMXQ7agTsL+IPxMzyeOf7JX9tSHrg7ubKZ7YAdvj1WYTey7/EdV2JjEdLuv93iQjcW9EgHu/Jf2KMpqt2Dzf4Ph0xl/ZcVGAGBne8I39qh/kZuWO87eX4Itu+T28oJaU/7X9HlNlp2D7wqk9khh8zSO1L/c3QEjpxqzxjaIXj1uN1M0z4JbECScme/EsfEHZI8z43viBJkr5FoTxrjoKgjLGNuk6Vu1OECDnZs/L/gcQ5AUOJysKsEXwmmbEP2qa8V7cCBYIq/490YHd5nFpUJ3Ipjlwo/2tV4hFZj7uwoseuq6rDP7JP9SfmD7MpwjH2Kb8G/+41UmRba/Kejf8XzzVHyKwQ09A8+v3+iw3VG8XXB7F7hq++wrwopnyv4RRBrcFzmsnm27j9SqehShqn9h9uBJw04xhsV2Gzi3BqOBV83BX1koYcdPqRp+KQE7Bq5u+Pj8eOcFG3+2ykudERz2lr8P7QoKxX3x1bswuwhRVmJ8B3A8dcf0RF7p7tSWNRHOoqiKIMDdyneHehKQnf4iqIoA0F3+IqiKANBA76iKMpA0IC/zMivJOwvAxRFURaT1RfwZ0YX7gJ4ZbmzeBH++CLBGL8O6fMTtBzNeubmiE68Vr+e3k6XtozeXvczvRfP/jRTx7hssTCkna0CWR158Bmd7OoTEaV23Dw7JW8Cd8f9TBnnrQw7V3SYd93GBP1CH7v0bXw26DXvlxm/rf19qMwqC/jsAGN426w/4xLZataz4/sr6yeG8jYyXkL5/j/N9Hlctlgp4OW1G8HLVn3IitpxgKze0+jKgxmapufpxAHIDGxYQXYe47wbqGhZHyrRu1F8qIWev9LBihuLCOG1X3tMxLpCcS/zBmlTMMiJaYkGSyBqZc41da+Xc6XTXJcvFDb5xvdo85R7rbmneBF/roXL6ms5qmsCaa8RT8LvvyFiVYtytYkuvSSvdqMu31bmd+R1X0t2qnb+rl7B9jch7mUw44Tr7L3Otsj006/Tabq4z3sOf5u2nPt5LXZV9Slli2hck9fL+Y61gQSBQ7QR5/cRyHrhi9ou1o4V8lto3z6JNnjCYvh8ZO7D/PiibCQGJz7p+TH8cc/hf0H7r/yx9U20u64n7kdA8NvtegydX6f9A3cFdh6UfMbzsdoffaE32y5pQ0norcu8WyWiZbH/+/7BsawpTFjPHWfH2K7xGNTXTceLVLsQM05vjH0oL2zXhxF2+E3xqlpACx0vCQEVRJmY6lxPxMgXV4uFu0YVLxKSomMMO/xpPgfXzMkVOFGjVtGly5Gwlj0flO0EqQkjrGQw9cJJiuJecjwi108EFLyRCdu68/EW5VbnjO7twqhP0dg12pu9Hoh8Jytu1V0gKy8MlrNPJIIV9Nn4SXZ8S2Jw9BXNWlG991/+ZiDOtSPbzwgr/XC08BgjtndJELBhG/Ftzx/5c0kwz9mNOs67ilUhWpbwfylVx7K8L4dxCYtUSVAu60/B9/G5T4U+1HKNrowQ8GPxKuD0H2CIkhCQeS2/RChiFImr2TIGvsaI4kUgLTrmMEJXOR0PX/yoKLr0Tf7oC2vha6HNTmmkfGD3WKysSbafcmttBb0kkJVe2fb65Mc4Jm5vm10D3+H/J8WteghktQlLNe3jfDVPfnzNWCXF4GQcrUxA/By7Qz8MHBDfQoCBymZ6NGJ7lwQBk7Zp+KNpM3aOdVCzfgFpAnPAozDvHJ372zJ/xL7xeI0+7wPb/SLn//X18r6ciEsFQbm8P5ljbvzaYmNX0boSI+3wJThFIlMG0+iUEJBxJhPoQrAzsv9kZBcruwNzqxaIq/nCXdidjCxe9Iu86JgEIzMYochTmrC96L+xD24vj1//1VBYy9vptAkmhXjlI7tjN2Su7y8oDuxy2/tp5IKNwmOTqE8pIamKwvWEyHewaymJW7V9z7QJS5XtA4xtc8T+mBeDM0FK7sCwm/aDZYd+CFwOi0VWMCwBdFbc3IoFARu2wZj7/ijiNOauRPqI3apg/QLKn/K567yzdO0vU5w/iyla9lSb/5d9OYxLDB6zWDv6j35iYn8C2dgYL7gdr1FipB1+LF7lkxMC2nPnqlmVrWiZuf1ywkamTFPECI5pdwoywczkxK7t5D0476jiRU+JY6VFx6DBbVbv9C61pl106Tt218f95ts2ZwvQJpgUU5WX3QHIiJUFmAnU1k/sAI36ZppWIamK0vVA5Dtt4lYdxK/ywlJd7GOQoMm2jX/FkRrfrBgcL9yym0bfEGxkQcXYT9HNRD8Q0BptQt0oJ+Jn6eU3piQI2LSNuwux/ugJvaGP/q9wpj/gY5VfdJ93QodxA+3zZzFFy9r8v+TLUVzqKCiX9Ccmjo0Vvg+NLFoXgT/adudnj3/0gz94/JP79mNHbvz4R49/96df2U9LxP3px7/7gz96fMN+VJab0XxHWWJW+7xZZe1f6ti4yn6W2RHcGmfuQBRFeULRed9Kz59lKoqiKKuVJ3OHryiKojTQgK8oijIQNOAriv2FzUI0mhRlNbDwgP/gMzouYk8rh+RP3rrAfRlVRGvcVH1I2Rd/nPJ+1pWk47jg1W78TKyLsBTKjiRA1aG9I4/ZCDSuhfcCDhxsvFQ2frCwjPiTui5jvooY2ZeEFjsudB6vMH8dJ7rDr8CLFqOLaC0a616i97MvDS0U87IHXk4a9UWO1UhD8Aw29j8vGk+a8NxKZIXO4xVC71/pYGUzLyQ5nRBf8Alg9TUvXPQRWJNVFa+AO2Egqde8ZGQ0PPCyw4fyWrGp0xNRisSEpI0iwMXX87QoqlfM42uizBtER+33ofhVKNAEsDsRESOAuibuVzYQ8S9PwKkpdmT6UYvFQSDrFaIPbF/s9UT0DPV4dVfiScDWWYuV2X6ab80OX87bR7dLYlP25TLYeP+1qL3RmIioUyT0lBdLi+zU0l5pS1F4yx9XCKu9KuJtfnudoJkvyCfCX5Ev+GNU28Cze+w7cvWQ+jxbRuzti44ZkbFwnCEGlxO18+YIn+9sWbZh5JuNNlh5As/3zTFvjsp8tItdPAdbzjtFnxaFwUwsiOa5Bf0y4maJeVzN/ah/XnuC8fLtGInhBQJ9qXnvje+4/XUl0m+HzwORE1sKiUSy/GMSCGPhMA6CgWiSWaVD4StfnAoqf3nRKAMEuPD69V2a5u9SIluQToBTyGv3gYjWU3mBKLaBEaCCDeyxFOxUabEjo3ly/hofkFe6jeZHuyBVQtSt43hkxaZ8USyK2xuPiTknFu/qJULXpb2tQmNWWO1ezr4pQl+o8Npj9Gvcl5nyjkI/IDqG/p6/9lVynCuSdouEwlpsGLa5xhc+k1wObSJhQjze3c4rCYPlBAJ9kvMYkg4IzsHdkGmfzFfIV9ijDTtGYnipNgTz3lazeP66shjhkY55FRsrYTDBA6w2jLwa7HB6MeYxQlM4zHzvC3TJa+FYiYPXwvnY2ZmiaJTgBLgsKSEpvIZtXnWOnwdy23ICTXBGq7uBV9eLZMSOnKrfyWvswKL5UbheQErUrW08utbNBO2F0EpzTAIBKqa/CF1Le9lnisJb/rhm7Nsg8oUKbyxlTHgjIPIyufIBqX5YMS5Lc5xr0nZLaSpFNky0OXzWbNvgdFhEt8gey4iE1Xjj/Uy38/LCYLl5HpKcx05igu0T/yE9FhAs+1+6Dfl5H9laWKC/rjBGCPhmdyu7Ze8WLcQOrhPJCoBGRSwcZnQrcA5ulY5/ItNOdhtyHbsS++JUXyuIRqVIimzJ83Gs3ri2aZeAlT0n0ISJZJ0fzhoTHMNtobWV/6jDyeCe576L5kfpeg5xcrODCEXdWsajS92OoL3fjMYkFVBxJ9ZXhK6lvbgz6ii8lbVvJMiXxRvLh9dnebe6np4y33SgwzyIx7miYDeflA0TbQ4XJ7vLdMJnXh29RPIg/NfpvBqza4ZNsDNHffE8N+V80uJv+FuHsU29kHv1VXElZUdTzpBpQzDvpeDS+OsKoF/AZ0PlxJZCeKB6CqyFoklGT1x2+LiW/DUczwNtnbxb+o2CaFSKlMgWHBv1H71opG4rES1RuTS7x4ZAk2cDrPrmmJnYOIZnmkJR7MjsZsjd5sPZcterSIi6dRmPTnUzifaGY+IHLAcmVA8Rui7t7Si8lWqv2VG7c225El57Js4RnZjIOBGe+fq/2ug8D6JxrijZzadsw1ybQ+GzUUXyvtP5PJAUQkvM85ik+BvsbfvnL5RVffZvezk7VvOYNympNsTz3rDI/rpC6P1H23bMH3b8TD1PKnAc98c/5QkGAejatpU/znw3F/6AQlFC9GeZitLG9kO6qCtPBIuww1cURVFWIrrDVxRFGQga8BVFUQaCBnxFUZSBsHgBf2aq8HO1MnjFOfu777Pez+MURVGUzixSwMdr2fUbrX3BC1bhizQGeQ37jv2gKIqi9GJM4mmhYJMIVtmXFybfOEj0nifUJGJgtSialLW/ZXeCSkfmPjTCSjtnPBElCE/Z15fxhuWhRzThFpVImElRFEVp0m+Hj9f0M2JCtWjUTCjKJXHYCS5taIiikdUbuWlffQ5eQQ9ElPAmHN5a5GAPFbuEGJqiKIqSZ4RHOuZV45JoVJNQR0MkDrA7h8SBlSWYPptQFCyIKKXE0BRFUZQ8IwT8DqJRtIE2F7RMQlE0Kxd8sakoCH0LX0TJV7FLiqEpiqIoWfoF/B6iUVCpw04+LLM+IYpmRa/4LiBUFGRiESVRCrxBE29/JmqZUk8lhnafPnq71CZFUZRho9IKiqIoA2GRfpapKIqirDQ04CuKogwEDfiKoigDQQO+oijKQNCAryiKMhA04CuKogwEDfiKoigDQQO+oijKQNCAryiKMhA04CuKogwEDfiKoigDQQO+oijKQNCAryiKMhA04CuKogwEDfiKoigDQQO+oijKQNCAryiKMgiI/j/t2qa2TDXj7wAAAABJRU5ErkJggg==;" vertex="1" parent="1">
          <mxGeometry x="560" y="-150" width="380" height="277" as="geometry" />
        </mxCell>
        <mxCell id="KqfgTV9DE77OCgo0P1k1-4" value="Cliente" style="text;html=1;align=center;verticalAlign=middle;resizable=0;points=[];autosize=1;strokeColor=none;fillColor=none;" vertex="1" parent="1">
          <mxGeometry x="530" y="208" width="60" height="30" as="geometry" />
        </mxCell>
        <mxCell id="KqfgTV9DE77OCgo0P1k1-6" value="AccedeAplicacion(user: String, password: String)" style="html=1;verticalAlign=bottom;endArrow=block;edgeStyle=elbowEdgeStyle;elbow=vertical;curved=0;rounded=0;" edge="1" parent="1" source="KqfgTV9DE77OCgo0P1k1-8">
          <mxGeometry relative="1" as="geometry">
            <mxPoint x="570" y="289" as="sourcePoint" />
            <mxPoint x="920" y="289" as="targetPoint" />
          </mxGeometry>
        </mxCell>
        <mxCell id="KqfgTV9DE77OCgo0P1k1-7" value="respuesta" style="html=1;verticalAlign=bottom;endArrow=open;dashed=1;endSize=8;edgeStyle=elbowEdgeStyle;elbow=vertical;curved=0;rounded=0;" edge="1" parent="1">
          <mxGeometry relative="1" as="geometry">
            <mxPoint x="565" y="350.2758620689656" as="targetPoint" />
            <mxPoint x="920.0000000000002" y="350.2758620689656" as="sourcePoint" />
          </mxGeometry>
        </mxCell>
        <mxCell id="KqfgTV9DE77OCgo0P1k1-9" value="loop&amp;nbsp; (1,3)" style="shape=umlFrame;whiteSpace=wrap;html=1;pointerEvents=0;" vertex="1" parent="1">
          <mxGeometry x="520" y="370" width="450" height="130" as="geometry" />
        </mxCell>
        <mxCell id="KqfgTV9DE77OCgo0P1k1-10" value="!passCorrecta" style="text;html=1;align=center;verticalAlign=middle;resizable=0;points=[];autosize=1;strokeColor=none;fillColor=none;" vertex="1" parent="1">
          <mxGeometry x="870" y="370" width="100" height="30" as="geometry" />
        </mxCell>
        <mxCell id="KqfgTV9DE77OCgo0P1k1-19" value="opt" style="shape=umlFrame;whiteSpace=wrap;html=1;pointerEvents=0;" vertex="1" parent="1">
          <mxGeometry x="520" y="640" width="450" height="200" as="geometry" />
        </mxCell>
        <mxCell id="KqfgTV9DE77OCgo0P1k1-24" value="!posibilidad" style="text;html=1;align=center;verticalAlign=middle;resizable=0;points=[];autosize=1;strokeColor=none;fillColor=none;" vertex="1" parent="1">
          <mxGeometry x="520" y="670" width="80" height="30" as="geometry" />
        </mxCell>
        <mxCell id="KqfgTV9DE77OCgo0P1k1-29" value="" style="html=1;points=[];perimeter=orthogonalPerimeter;outlineConnect=0;targetShapes=umlLifeline;portConstraint=eastwest;newEdgeStyle={&quot;edgeStyle&quot;:&quot;elbowEdgeStyle&quot;,&quot;elbow&quot;:&quot;vertical&quot;,&quot;curved&quot;:0,&quot;rounded&quot;:0};" vertex="1" parent="1">
          <mxGeometry x="555" y="1070" width="10" height="80" as="geometry" />
        </mxCell>
        <mxCell id="KqfgTV9DE77OCgo0P1k1-30" value="aceptarFechas(boolean aceptado)" style="html=1;verticalAlign=bottom;endArrow=block;edgeStyle=elbowEdgeStyle;elbow=vertical;curved=0;rounded=0;" edge="1" parent="1">
          <mxGeometry relative="1" as="geometry">
            <mxPoint x="565" y="1079" as="sourcePoint" />
            <mxPoint x="920" y="1079" as="targetPoint" />
          </mxGeometry>
        </mxCell>
        <mxCell id="KqfgTV9DE77OCgo0P1k1-31" value="calendarioFechas" style="html=1;verticalAlign=bottom;endArrow=open;dashed=1;endSize=8;edgeStyle=elbowEdgeStyle;elbow=vertical;curved=0;rounded=0;" edge="1" parent="1">
          <mxGeometry relative="1" as="geometry">
            <mxPoint x="565" y="1140.2758620689656" as="targetPoint" />
            <mxPoint x="920.0000000000002" y="1140.2758620689656" as="sourcePoint" />
          </mxGeometry>
        </mxCell>
        <mxCell id="KqfgTV9DE77OCgo0P1k1-32" value="" style="html=1;points=[];perimeter=orthogonalPerimeter;outlineConnect=0;targetShapes=umlLifeline;portConstraint=eastwest;newEdgeStyle={&quot;edgeStyle&quot;:&quot;elbowEdgeStyle&quot;,&quot;elbow&quot;:&quot;vertical&quot;,&quot;curved&quot;:0,&quot;rounded&quot;:0};" vertex="1" parent="1">
          <mxGeometry x="920" y="1070" width="10" height="80" as="geometry" />
        </mxCell>
        <mxCell id="KqfgTV9DE77OCgo0P1k1-33" value="loop" style="shape=umlFrame;whiteSpace=wrap;html=1;pointerEvents=0;" vertex="1" parent="1">
          <mxGeometry x="520" y="980" width="450" height="200" as="geometry" />
        </mxCell>
        <mxCell id="KqfgTV9DE77OCgo0P1k1-34" value="!aceptado" style="text;html=1;align=center;verticalAlign=middle;resizable=0;points=[];autosize=1;strokeColor=none;fillColor=none;" vertex="1" parent="1">
          <mxGeometry x="880" y="990" width="80" height="30" as="geometry" />
        </mxCell>
        <mxCell id="KqfgTV9DE77OCgo0P1k1-35" value="" style="html=1;points=[];perimeter=orthogonalPerimeter;outlineConnect=0;targetShapes=umlLifeline;portConstraint=eastwest;newEdgeStyle={&quot;edgeStyle&quot;:&quot;elbowEdgeStyle&quot;,&quot;elbow&quot;:&quot;vertical&quot;,&quot;curved&quot;:0,&quot;rounded&quot;:0};" vertex="1" parent="1">
          <mxGeometry x="555" y="1201" width="10" height="80" as="geometry" />
        </mxCell>
        <mxCell id="KqfgTV9DE77OCgo0P1k1-36" value="solicitarDatosEntrevista()" style="html=1;verticalAlign=bottom;endArrow=block;edgeStyle=elbowEdgeStyle;elbow=vertical;curved=0;rounded=0;" edge="1" parent="1">
          <mxGeometry relative="1" as="geometry">
            <mxPoint x="565" y="1210" as="sourcePoint" />
            <mxPoint x="920" y="1210" as="targetPoint" />
          </mxGeometry>
        </mxCell>
        <mxCell id="KqfgTV9DE77OCgo0P1k1-37" value="datosEntrevista" style="html=1;verticalAlign=bottom;endArrow=open;dashed=1;endSize=8;edgeStyle=elbowEdgeStyle;elbow=vertical;curved=0;rounded=0;" edge="1" parent="1">
          <mxGeometry relative="1" as="geometry">
            <mxPoint x="565" y="1271.2758620689656" as="targetPoint" />
            <mxPoint x="920.0000000000002" y="1271.2758620689656" as="sourcePoint" />
          </mxGeometry>
        </mxCell>
        <mxCell id="KqfgTV9DE77OCgo0P1k1-38" value="" style="html=1;points=[];perimeter=orthogonalPerimeter;outlineConnect=0;targetShapes=umlLifeline;portConstraint=eastwest;newEdgeStyle={&quot;edgeStyle&quot;:&quot;elbowEdgeStyle&quot;,&quot;elbow&quot;:&quot;vertical&quot;,&quot;curved&quot;:0,&quot;rounded&quot;:0};" vertex="1" parent="1">
          <mxGeometry x="920" y="1201" width="10" height="80" as="geometry" />
        </mxCell>
      </root>
    </mxGraphModel>
  </diagram>
</mxfile>
